<svg width="12" height="12" viewBox="0 0 12 12" fill="none" xmlns="http://www.w3.org/2000/svg">
<path d="M2.4375 11.625H1.6875C1.53832 11.625 1.39524 11.5657 1.28975 11.4602C1.18426 11.3548 1.125 11.2117 1.125 11.0625V7.6875C1.125 7.53832 1.18426 7.39524 1.28975 7.28975C1.39524 7.18426 1.53832 7.125 1.6875 7.125H2.4375C2.58668 7.125 2.72976 7.18426 2.83525 7.28975C2.94074 7.39524 3 7.53832 3 7.6875V11.0625C3 11.2117 2.94074 11.3548 2.83525 11.4602C2.72976 11.5657 2.58668 11.625 2.4375 11.625ZM7.6875 11.625H6.9375C6.78832 11.625 6.64524 11.5657 6.53975 11.4602C6.43426 11.3548 6.375 11.2117 6.375 11.0625V5.4375C6.375 5.28832 6.43426 5.14524 6.53975 5.03975C6.64524 4.93426 6.78832 4.875 6.9375 4.875H7.6875C7.83668 4.875 7.97976 4.93426 8.08525 5.03975C8.19074 5.14524 8.25 5.28832 8.25 5.4375V11.0625C8.25 11.2117 8.19074 11.3548 8.08525 11.4602C7.97976 11.5657 7.83668 11.625 7.6875 11.625ZM10.3125 11.625H9.5625C9.41332 11.625 9.27024 11.5657 9.16475 11.4602C9.05926 11.3548 9 11.2117 9 11.0625V2.8125C9 2.66332 9.05926 2.52024 9.16475 2.41475C9.27024 2.30926 9.41332 2.25 9.5625 2.25H10.3125C10.4617 2.25 10.6048 2.30926 10.7102 2.41475C10.8157 2.52024 10.875 2.66332 10.875 2.8125V11.0625C10.875 11.2117 10.8157 11.3548 10.7102 11.4602C10.6048 11.5657 10.4617 11.625 10.3125 11.625ZM5.0625 11.625H4.3125C4.16332 11.625 4.02024 11.5657 3.91475 11.4602C3.80926 11.3548 3.75 11.2117 3.75 11.0625V0.9375C3.75 0.788316 3.80926 0.645242 3.91475 0.539752C4.02024 0.434263 4.16332 0.375 4.3125 0.375H5.0625C5.21168 0.375 5.35476 0.434263 5.46025 0.539752C5.56574 0.645242 5.625 0.788316 5.625 0.9375V11.0625C5.625 11.2117 5.56574 11.3548 5.46025 11.4602C5.35476 11.5657 5.21168 11.625 5.0625 11.625Z" fill="#00DD70"/>
</svg>
