<svg width="12" height="12" viewBox="0 0 12 12" fill="none" xmlns="http://www.w3.org/2000/svg">
<path d="M6.00098 1.125C3.31293 1.125 1.12598 3.31195 1.12598 6C1.12598 8.68805 3.31293 10.875 6.00098 10.875C8.68902 10.875 10.876 8.68805 10.876 6C10.876 3.31195 8.68902 1.125 6.00098 1.125ZM9.35254 8.25H8.2927C8.25985 8.24993 8.22761 8.24123 8.19919 8.22477C8.17076 8.20832 8.14716 8.18469 8.13074 8.15625L7.75246 7.5075C7.72756 7.46508 7.72032 7.41458 7.7323 7.36688L8.08059 5.9625C8.08757 5.9342 8.10106 5.90792 8.11998 5.88575C8.1389 5.86358 8.16273 5.84612 8.18957 5.83477L8.84816 5.55586C8.88035 5.54221 8.9157 5.53783 8.95024 5.54322C8.98478 5.5486 9.01713 5.56353 9.04363 5.58633L10.0193 6.42586C10.0434 6.44657 10.0618 6.47304 10.0728 6.5028C10.0838 6.53256 10.0871 6.56464 10.0824 6.59602C10.0016 7.15039 9.8079 7.68229 9.51332 8.15883C9.49668 8.18662 9.47312 8.20962 9.44494 8.2256C9.41677 8.24158 9.38493 8.24999 9.35254 8.25ZM3.15379 5.55773L3.81238 5.83664C3.83923 5.848 3.86305 5.86545 3.88197 5.88763C3.90089 5.9098 3.91438 5.93608 3.92137 5.96437L4.26965 7.36875C4.28164 7.41645 4.2744 7.46696 4.24949 7.50937L3.87121 8.15625C3.85479 8.18469 3.83119 8.20832 3.80277 8.22477C3.77434 8.24123 3.7421 8.24993 3.70926 8.25H2.64941C2.61736 8.25002 2.58584 8.24182 2.55785 8.22619C2.52987 8.21056 2.50636 8.18801 2.48957 8.1607C2.19499 7.68417 2.00131 7.15227 1.92051 6.59789C1.91576 6.56651 1.91905 6.53444 1.93008 6.50468C1.9411 6.47492 1.9595 6.44844 1.98355 6.42773L2.95926 5.5882C2.98567 5.56559 3.01785 5.55076 3.0522 5.54538C3.08656 5.54 3.12173 5.54428 3.15379 5.55773ZM9.17582 3.51305L8.75231 4.71727C8.74379 4.74188 8.73025 4.76444 8.71253 4.78353C8.69482 4.80262 8.67332 4.8178 8.64941 4.82812L7.95613 5.1218C7.92432 5.13526 7.8894 5.13967 7.85524 5.13454C7.82108 5.12941 7.789 5.11494 7.76254 5.09273L6.44395 3.98672C6.42288 3.96929 6.40587 3.94746 6.39413 3.92276C6.38239 3.89806 6.37619 3.8711 6.37598 3.84375V3.05672C6.376 3.02588 6.38362 2.99552 6.39817 2.96834C6.41273 2.94115 6.43376 2.91797 6.45941 2.90086L7.46324 2.23195C7.48944 2.21447 7.51962 2.20386 7.551 2.20112C7.58237 2.19837 7.61394 2.20358 7.64277 2.21625C8.22039 2.46816 8.73298 2.84841 9.1416 3.32812C9.16308 3.3532 9.17756 3.38351 9.18357 3.41599C9.18958 3.44846 9.18691 3.48194 9.17582 3.51305ZM4.53848 2.23195L5.54254 2.90086C5.56819 2.91797 5.58923 2.94115 5.60378 2.96834C5.61833 2.99552 5.62596 3.02588 5.62598 3.05672V3.84375C5.62598 3.87114 5.61997 3.8982 5.60839 3.92302C5.59681 3.94784 5.57993 3.96982 5.55895 3.98742L4.24035 5.09344C4.21389 5.11565 4.18181 5.13011 4.14765 5.13524C4.11349 5.14037 4.07857 5.13596 4.04676 5.1225L3.35254 4.82812C3.32848 4.81794 3.30682 4.80283 3.28894 4.78378C3.27106 4.76473 3.25735 4.74216 3.24871 4.7175L2.8252 3.51328C2.81419 3.48206 2.81164 3.44849 2.81782 3.41597C2.82399 3.38344 2.83867 3.35314 2.86035 3.32812C3.26921 2.84793 3.78222 2.46734 4.36035 2.21531C4.38908 2.20303 4.42042 2.19811 4.45153 2.20102C4.48263 2.20392 4.51252 2.21456 4.53848 2.23195ZM4.94418 9.9068L4.48176 8.74219C4.47118 8.71571 4.46679 8.68718 4.4689 8.65875C4.47101 8.63032 4.47958 8.60275 4.49395 8.57812L4.84949 7.96875C4.86591 7.94031 4.88951 7.91668 4.91794 7.90023C4.94636 7.88377 4.9786 7.87507 5.01145 7.875H6.99051C7.02335 7.87507 7.05559 7.88377 7.08402 7.90023C7.11244 7.91668 7.13604 7.94031 7.15246 7.96875L7.50824 8.57812C7.52265 8.60273 7.53126 8.63029 7.53341 8.65872C7.53556 8.68715 7.5312 8.7157 7.52066 8.74219L7.06152 9.90633C7.05029 9.93479 7.03227 9.96007 7.00903 9.97997C6.98578 9.99986 6.95802 10.0138 6.92816 10.0205C6.31889 10.1603 5.68587 10.1603 5.0766 10.0205C5.04697 10.0137 5.01943 9.99978 4.99636 9.97998C4.97329 9.96018 4.95538 9.93506 4.94418 9.9068Z" fill="#00DD70"/>
</svg>
