<svg width="27" height="27" viewBox="0 0 27 27" fill="none" xmlns="http://www.w3.org/2000/svg">
<path d="M8.71874 2.8125C8.71874 2.58872 8.62985 2.37411 8.47161 2.21588C8.31338 2.05764 8.09877 1.96875 7.87499 1.96875C7.65122 1.96875 7.4366 2.05764 7.27837 2.21588C7.12014 2.37411 7.03124 2.58872 7.03124 2.8125V4.59C5.41124 4.71937 4.34924 5.03662 3.56849 5.8185C2.78662 6.59925 2.46937 7.66237 2.33887 9.28125H24.6611C24.5306 7.66125 24.2134 6.59925 23.4315 5.8185C22.6507 5.03662 21.5876 4.71937 19.9687 4.58887V2.8125C19.9687 2.58872 19.8798 2.37411 19.7216 2.21588C19.5634 2.05764 19.3488 1.96875 19.125 1.96875C18.9012 1.96875 18.6866 2.05764 18.5284 2.21588C18.3701 2.37411 18.2812 2.58872 18.2812 2.8125V4.51463C17.5331 4.5 16.6939 4.5 15.75 4.5H11.25C10.3061 4.5 9.46687 4.5 8.71874 4.51463V2.8125Z" fill="#00DD70"/>
<path fill-rule="evenodd" clip-rule="evenodd" d="M2.25 13.5C2.25 12.5561 2.25 11.7169 2.26463 10.9688H24.7354C24.75 11.7169 24.75 12.5561 24.75 13.5V15.75C24.75 19.9924 24.75 22.1141 23.4315 23.4315C22.113 24.7489 19.9924 24.75 15.75 24.75H11.25C7.00763 24.75 4.88587 24.75 3.5685 23.4315C2.25112 22.113 2.25 19.9924 2.25 15.75V13.5ZM19.125 15.75C19.4234 15.75 19.7095 15.6315 19.9205 15.4205C20.1315 15.2095 20.25 14.9234 20.25 14.625C20.25 14.3266 20.1315 14.0405 19.9205 13.8295C19.7095 13.6185 19.4234 13.5 19.125 13.5C18.8266 13.5 18.5405 13.6185 18.3295 13.8295C18.1185 14.0405 18 14.3266 18 14.625C18 14.9234 18.1185 15.2095 18.3295 15.4205C18.5405 15.6315 18.8266 15.75 19.125 15.75ZM19.125 20.25C19.4234 20.25 19.7095 20.1315 19.9205 19.9205C20.1315 19.7095 20.25 19.4234 20.25 19.125C20.25 18.8266 20.1315 18.5405 19.9205 18.3295C19.7095 18.1185 19.4234 18 19.125 18C18.8266 18 18.5405 18.1185 18.3295 18.3295C18.1185 18.5405 18 18.8266 18 19.125C18 19.4234 18.1185 19.7095 18.3295 19.9205C18.5405 20.1315 18.8266 20.25 19.125 20.25ZM14.625 14.625C14.625 14.9234 14.5065 15.2095 14.2955 15.4205C14.0845 15.6315 13.7984 15.75 13.5 15.75C13.2016 15.75 12.9155 15.6315 12.7045 15.4205C12.4935 15.2095 12.375 14.9234 12.375 14.625C12.375 14.3266 12.4935 14.0405 12.7045 13.8295C12.9155 13.6185 13.2016 13.5 13.5 13.5C13.7984 13.5 14.0845 13.6185 14.2955 13.8295C14.5065 14.0405 14.625 14.3266 14.625 14.625ZM14.625 19.125C14.625 19.4234 14.5065 19.7095 14.2955 19.9205C14.0845 20.1315 13.7984 20.25 13.5 20.25C13.2016 20.25 12.9155 20.1315 12.7045 19.9205C12.4935 19.7095 12.375 19.4234 12.375 19.125C12.375 18.8266 12.4935 18.5405 12.7045 18.3295C12.9155 18.1185 13.2016 18 13.5 18C13.7984 18 14.0845 18.1185 14.2955 18.3295C14.5065 18.5405 14.625 18.8266 14.625 19.125ZM7.875 15.75C8.17337 15.75 8.45952 15.6315 8.67049 15.4205C8.88147 15.2095 9 14.9234 9 14.625C9 14.3266 8.88147 14.0405 8.67049 13.8295C8.45952 13.6185 8.17337 13.5 7.875 13.5C7.57663 13.5 7.29048 13.6185 7.07951 13.8295C6.86853 14.0405 6.75 14.3266 6.75 14.625C6.75 14.9234 6.86853 15.2095 7.07951 15.4205C7.29048 15.6315 7.57663 15.75 7.875 15.75ZM7.875 20.25C8.17337 20.25 8.45952 20.1315 8.67049 19.9205C8.88147 19.7095 9 19.4234 9 19.125C9 18.8266 8.88147 18.5405 8.67049 18.3295C8.45952 18.1185 8.17337 18 7.875 18C7.57663 18 7.29048 18.1185 7.07951 18.3295C6.86853 18.5405 6.75 18.8266 6.75 19.125C6.75 19.4234 6.86853 19.7095 7.07951 19.9205C7.29048 20.1315 7.57663 20.25 7.875 20.25Z" fill="#00DD70"/>
</svg>
