<svg width="20" height="20" viewBox="0 0 20 20" fill="none" xmlns="http://www.w3.org/2000/svg">
<path fill-rule="evenodd" clip-rule="evenodd" d="M2.39941 3.5999C2.39941 3.28164 2.52584 2.97642 2.75089 2.75137C2.97593 2.52633 3.28115 2.3999 3.59941 2.3999H15.5994C15.9177 2.3999 16.2229 2.52633 16.4479 2.75137C16.673 2.97642 16.7994 3.28164 16.7994 3.5999V5.2687C16.7993 5.69301 16.6307 6.09991 16.3306 6.3999L11.9994 10.7311V16.6703C11.9994 16.8203 11.9611 16.9679 11.8881 17.0989C11.815 17.2299 11.7097 17.3401 11.5821 17.419C11.4545 17.4979 11.3088 17.5428 11.159 17.5495C11.0091 17.5563 10.86 17.5246 10.7258 17.4575L7.75221 15.9711C7.58611 15.8881 7.44641 15.7604 7.34878 15.6024C7.25114 15.4444 7.19942 15.2624 7.19941 15.0767V10.7311L2.86821 6.3999C2.56814 6.09991 2.3995 5.69301 2.39941 5.2687V3.5999Z" fill="black"/>
</svg>
