<svg width="25" height="25" viewBox="0 0 25 25" fill="none" xmlns="http://www.w3.org/2000/svg">
<path d="M13.4383 17.3525H10.5208C9.92833 17.3525 9.44083 17.8325 9.44833 18.425V21.3425C9.44833 21.935 9.92833 22.415 10.5208 22.415H10.7068C10.8333 22.6405 11.0175 22.8281 11.2405 22.9588C11.4636 23.0894 11.7174 23.1582 11.9758 23.1582C12.2343 23.1582 12.4881 23.0894 12.7111 22.9588C12.9342 22.8281 13.1184 22.6405 13.2448 22.415H13.4383C14.0308 22.415 14.5108 21.935 14.5108 21.3425V18.425C14.5108 17.8325 14.0308 17.3525 13.4383 17.3525Z" fill="#9B9B9B"/>
<path d="M13.821 17.9974C14.001 17.9974 14.1435 17.8624 14.1585 17.6899C14.211 17.0449 14.4885 15.4774 16.0035 13.7974C16.7266 13.2284 17.3204 12.5122 17.7458 11.6963C18.1712 10.8804 18.4184 9.9835 18.471 9.0649C18.486 8.8849 18.4935 8.7649 18.4935 8.6899V8.6149C18.4485 5.0299 15.546 2.1499 11.9685 2.1499C10.2516 2.14981 8.60401 2.8272 7.38366 4.03491C6.16332 5.24262 5.46881 6.88308 5.45103 8.5999C5.45103 8.5999 5.44353 8.7799 5.47353 9.0799C5.59353 10.9849 6.52353 12.6724 7.94103 13.7899C9.45603 15.4774 9.75603 17.0449 9.80853 17.6899C9.82353 17.8624 9.96603 17.9974 10.146 17.9974H13.821Z" fill="#FCD53F"/>
<path d="M11.9758 8.6748C13.1908 8.6748 14.1808 9.6573 14.1958 10.8723V10.9323C14.1958 10.9548 14.1958 10.9848 14.1883 11.0298C14.1508 11.6598 13.8433 12.2523 13.3483 12.6423L13.2958 12.6798L13.2508 12.7248C12.4258 13.6398 12.2533 15.9648 12.2233 17.2398H11.7358C11.6983 15.9648 11.5183 13.6398 10.6933 12.7248L10.6483 12.6798L10.5958 12.6423C10.348 12.4464 10.145 12.1999 10.0001 11.9192C9.85525 11.6386 9.77195 11.3302 9.75577 11.0148C9.75577 10.9848 9.74827 10.9623 9.74827 10.9473V10.8798C9.77077 9.66481 10.7683 8.6748 11.9758 8.6748ZM11.9758 7.9248C11.3586 7.92503 10.7568 8.11751 10.2541 8.47549C9.75136 8.83348 9.37264 9.33919 9.17056 9.92233C8.96848 10.5055 8.95308 11.1371 9.12651 11.7294C9.29994 12.3217 9.65357 12.8452 10.1383 13.2273C11.0383 14.2323 10.9933 17.9973 10.9933 17.9973H12.9733C12.9733 17.9973 12.9133 14.2323 13.8208 13.2348C14.4658 12.7248 14.8933 11.9523 14.9458 11.0748C14.9533 10.9923 14.9533 10.9398 14.9533 10.9023V10.8723C14.9454 10.0878 14.6282 9.33818 14.0706 8.78626C13.5131 8.23434 12.7603 7.92476 11.9758 7.9248Z" fill="#FFB02E"/>
<path d="M14.5749 19.4394C14.6235 19.4309 14.6699 19.413 14.7115 19.3866C14.7531 19.3602 14.7891 19.3258 14.8175 19.2855C14.8458 19.2452 14.8659 19.1997 14.8767 19.1516C14.8875 19.1035 14.8886 19.0537 14.8802 19.0052C14.8717 18.9566 14.8537 18.9102 14.8273 18.8686C14.8009 18.827 14.7666 18.791 14.7263 18.7626C14.6859 18.7343 14.6404 18.7141 14.5923 18.7034C14.5442 18.6926 14.4945 18.6914 14.4459 18.6999L9.39091 19.5849C9.34236 19.5934 9.29594 19.6113 9.25432 19.6377C9.21271 19.6642 9.1767 19.6985 9.14835 19.7388C9.12001 19.7791 9.09988 19.8247 9.08912 19.8728C9.07837 19.9209 9.07719 19.9706 9.08566 20.0192C9.09413 20.0677 9.11208 20.1141 9.13849 20.1558C9.1649 20.1974 9.19924 20.2334 9.23957 20.2617C9.27989 20.2901 9.3254 20.3102 9.3735 20.321C9.42161 20.3317 9.47136 20.3329 9.51991 20.3244L14.5749 19.4394ZM14.5374 21.0519C14.6343 21.0336 14.72 20.9779 14.7761 20.8969C14.8322 20.8159 14.8542 20.716 14.8372 20.6189C14.8203 20.5218 14.7658 20.4353 14.6855 20.3781C14.6053 20.3209 14.5057 20.2976 14.4084 20.3132L9.42091 21.1907C9.37076 21.1973 9.32246 21.214 9.27894 21.2398C9.23541 21.2656 9.19755 21.2999 9.16763 21.3407C9.13772 21.3815 9.11637 21.4279 9.10487 21.4772C9.09337 21.5265 9.09196 21.5775 9.10072 21.6274C9.10948 21.6772 9.12823 21.7247 9.15584 21.7671C9.18346 21.8095 9.21936 21.8459 9.2614 21.874C9.30344 21.9022 9.35073 21.9215 9.40045 21.9309C9.45016 21.9403 9.50125 21.9395 9.55066 21.9287L14.5374 21.0519Z" fill="#D3D3D3"/>
<path d="M10.5429 4.72982C9.71041 6.16982 10.1304 7.96982 11.4804 8.74232C12.8304 9.51482 14.5929 8.98232 15.4254 7.54232C16.2579 6.10232 15.8379 4.30232 14.4879 3.52982C13.1379 2.75732 11.3754 3.28982 10.5429 4.72982Z" fill="#FFF478"/>
</svg>
