<svg width="31" height="31" viewBox="0 0 31 31" fill="none" xmlns="http://www.w3.org/2000/svg">
<path d="M15.6237 1.00146L5.2835 5.28497L1 15.6252L5.2835 25.9654L15.6237 30.2489L25.9639 25.9654L30.2474 15.6252L25.9639 5.28497L15.6237 1.00146Z" fill="white"/>
<path d="M11.6262 22.2719L9.1406 14.1339L15.6419 9.3967L22.1445 14.1352L19.6615 22.2719H11.6262ZM11.4715 2.7225L15.6419 4.5035L19.7954 2.7303L15.625 1L11.4715 2.7225ZM29.8977 16.47L26.1589 12.1683L26.6282 6.8578L30.2487 15.625L29.8977 16.47ZM27.0052 23.4562L22.1432 24.5755L19.7876 28.5236L25.9652 25.9652L27.0052 23.4562ZM1.3523 16.47L5.0911 12.1683L4.6218 6.8578L1 15.625L1.3523 16.47ZM4.2448 23.4562L9.1068 24.5755L11.4624 28.5236L5.2848 25.9652L4.2448 23.4562Z" fill="#00DD70"/>
<path d="M15.6237 1.00146L5.2835 5.28497L1 15.6252L5.2835 25.9654L15.6237 30.2489L25.9639 25.9654L30.2474 15.6252L25.9639 5.28497L15.6237 1.00146Z" stroke="black" stroke-width="0.9" stroke-linecap="round" stroke-linejoin="round"/>
<path d="M11.6255 22.2719L9.13988 14.1339L15.6412 9.3967M11.6255 22.2719H19.6608M11.6255 22.2719L9.14118 24.5781M15.6412 9.3967L22.1438 14.1352L19.6608 22.2719M15.6412 9.3967V4.5035L19.7947 2.729L25.9645 5.2848L26.6275 6.8578L26.1595 12.1683L22.1425 14.1339L15.6412 9.3967ZM19.6608 22.2719L22.1425 24.5755M4.64838 6.8175L5.12158 12.1709M5.12158 12.1709L1.36328 16.4986M5.12158 12.1709L9.13858 14.1339M4.24148 23.451L9.14118 24.5794L11.5111 28.5444M22.1425 24.5755L27.0045 23.4562L25.9645 25.9652L19.7869 28.5236L22.1425 24.5755Z" stroke="black" stroke-width="0.9" stroke-linecap="round" stroke-linejoin="round"/>
<path d="M11.4707 2.7225L15.6411 4.5035L19.7946 2.7303L15.6242 1L11.4707 2.7225ZM29.8969 16.47L26.1581 12.1683L26.6274 6.8578L30.2479 15.625L29.8969 16.47Z" stroke="black" stroke-width="0.9" stroke-linecap="round" stroke-linejoin="round"/>
</svg>
