<svg width="52" height="55" viewBox="0 0 52 55" fill="none" xmlns="http://www.w3.org/2000/svg">
<path d="M25.65 0.317871C27.9482 0.317871 30.1747 0.620541 32.2934 1.18741L26.8402 6.63803C26.4265 7.05339 26.0616 7.51466 25.7526 8.01287H25.65C22.0988 8.01287 18.6274 9.06591 15.6747 11.0388C12.7221 13.0118 10.4207 15.8159 9.06174 19.0968C7.70277 22.3776 7.3472 25.9878 8.04 29.4707C8.7328 32.9536 10.4428 36.1529 12.9539 38.664C15.4649 41.175 18.6642 42.8851 22.1472 43.5779C25.6301 44.2707 29.2402 43.9151 32.5211 42.5561C35.8019 41.1972 38.6061 38.8958 40.579 35.9431C42.552 32.9905 43.605 29.519 43.605 25.9679V25.8653C44.1009 25.5575 44.5583 25.1941 44.9773 24.7751L50.4305 19.3245C50.9973 21.4432 51.3 23.6696 51.3 25.9679C51.3 40.1344 39.8165 51.6179 25.65 51.6179C11.4835 51.6179 0 40.1344 0 25.9679C0 11.8014 11.4835 0.317871 25.65 0.317871ZM24.5881 13.1865C24.5881 15.3693 24.4804 17.5829 24.5984 19.7631L23.2133 21.1482C22.7368 21.6247 22.3588 22.1903 22.101 22.8129C21.8431 23.4354 21.7104 24.1026 21.7104 24.7764C21.7104 25.4502 21.8431 26.1175 22.101 26.74C22.3588 27.3625 22.7368 27.9282 23.2133 28.4046C23.6897 28.8811 24.2554 29.259 24.8779 29.5169C25.5004 29.7748 26.1676 29.9075 26.8414 29.9075C27.5153 29.9075 28.1825 29.7748 28.805 29.5169C29.4275 29.259 29.9932 28.8811 30.4696 28.4046L31.8547 27.0195C34.035 27.1375 36.246 27.0298 38.4314 27.0298C38.2288 29.4674 37.3333 31.7962 35.8506 33.7416C34.3678 35.687 32.3597 37.1679 30.063 38.0094C27.7663 38.851 25.2768 39.0182 22.8882 38.4914C20.4996 37.9646 18.3114 36.7656 16.5818 35.036C14.8522 33.3064 13.6533 31.1183 13.1265 28.7297C12.5996 26.341 12.7669 23.8516 13.6084 21.5549C14.45 19.2582 15.9308 17.25 17.8762 15.7673C19.8216 14.2846 22.1505 13.3891 24.5881 13.1865ZM42.3328 0.643626C42.8009 0.837743 43.2011 1.16621 43.4828 1.58757C43.7645 2.00893 43.915 2.50429 43.9154 3.01112V7.70507H48.6068C49.114 7.70518 49.6098 7.85567 50.0315 8.13753C50.4532 8.41938 50.7819 8.81994 50.976 9.28856C51.1701 9.75719 51.2209 10.2728 51.1219 10.7703C51.023 11.2678 50.7788 11.7248 50.4202 12.0835L41.3478 21.1457C40.8669 21.6267 40.2146 21.8971 39.5343 21.8972H33.345L28.6562 26.5886C28.1749 27.0699 27.5221 27.3403 26.8414 27.3403C26.1608 27.3403 25.508 27.0699 25.0267 26.5886C24.5454 26.1073 24.275 25.4545 24.275 24.7739C24.275 24.0932 24.5454 23.4404 25.0267 22.9591L29.7181 18.2729V12.081C29.7178 11.7437 29.7841 11.4097 29.913 11.0981C30.042 10.7865 30.2311 10.5034 30.4696 10.2649L39.5369 1.19767C39.8956 0.838739 40.3527 0.594271 40.8504 0.495193C41.3481 0.396115 41.8639 0.446878 42.3328 0.641061" fill="#FB0000"/>
</svg>
