<svg width="27" height="27" viewBox="0 0 27 27" fill="none" xmlns="http://www.w3.org/2000/svg">
<path d="M13.4494 1.78297C13.3527 1.78234 13.256 1.78287 13.1593 1.78456C12.8044 1.79194 12.4494 1.81646 12.0965 1.85543C12.114 1.86419 12.1251 1.87231 12.1212 1.87853L10.7995 3.95827L14.6969 6.5653L14.6903 6.57521L18.4147 6.58998L19.565 4.18075L18.0802 2.74205C17.2433 2.38327 16.368 2.12175 15.4714 1.96264C14.8043 1.84452 14.1268 1.78545 13.4494 1.78297H13.4494ZM10.0679 4.65368L6.18367 6.59325L5.45525 11.7827L8.16284 13.5576L13.1381 11.2669L13.9225 7.2327L10.0679 4.65368H10.0679ZM20.422 4.67182L19.3013 7.0185L21.2393 10.8533L24.5122 12.905L25.1087 11.7827C25.1206 11.7902 25.1324 11.8039 25.1433 11.8222C25.1027 11.561 25.0531 11.3005 24.9951 11.0427C24.6552 9.53503 24.0148 8.09159 23.1231 6.82554C22.6448 6.14674 22.0934 5.51889 21.4833 4.95347L20.422 4.67176L20.422 4.67182ZM4.46157 5.88471C4.09739 6.30895 3.76247 6.75799 3.46289 7.22943C2.63623 8.53007 2.06859 9.99767 1.80508 11.5174C1.67674 12.2589 1.61987 13.0111 1.63528 13.7635L2.70315 14.0322L4.44496 11.8964L5.20803 6.46141L4.46157 5.88471ZM20.9526 11.8355L18.0094 14.1953L17.8264 19.5264L19.916 20.6405L23.9865 18.0252L24.2188 13.8723L24.2139 13.8806L20.9526 11.8354L20.9526 11.8355ZM13.5253 12.1733L8.56652 14.4573L8.50229 18.4981L13.2038 21.5238L16.8392 19.6023L17.0205 14.2366L13.5252 12.1733H13.5253ZM1.70119 14.7968C1.74918 15.2417 1.82196 15.6836 1.92036 16.1201C2.26023 17.6278 2.90227 19.0711 3.79412 20.3372C3.99836 20.6272 4.21705 20.907 4.44665 21.1777L3.95232 18.6382L3.95886 18.6365L2.53345 15.0061L1.70119 14.7968ZM7.88103 19.271L5.16352 19.7011L5.69746 22.4483C6.14962 22.8434 6.63113 23.2037 7.13784 23.526C7.91014 24.0162 8.73623 24.416 9.59985 24.7175L12.9024 23.9955L12.6733 22.3542L7.88108 19.2709L7.88103 19.271ZM23.8299 19.2974L20.4433 21.4727L18.2284 23.971L18.4609 24.2956C19.0951 24.0032 19.7038 23.6552 20.2752 23.2557C21.5393 22.3718 22.6274 21.2357 23.4541 19.935C23.5864 19.7268 23.7109 19.5136 23.8298 19.2973L23.8299 19.2974ZM17.3551 24.4472L13.1395 24.9548L11.7701 25.253C13.1936 25.4639 14.6556 25.4135 16.0581 25.1046C16.5545 24.9954 17.0434 24.852 17.5215 24.6795L17.3551 24.4472L17.3551 24.4472Z" fill="white"/>
</svg>
