<svg width="27" height="27" viewBox="0 0 27 27" fill="none" xmlns="http://www.w3.org/2000/svg">
<path d="M12.2851 3.22653C12.4089 3.01409 12.5863 2.83782 12.7995 2.71531C13.0127 2.59279 13.2543 2.52832 13.5001 2.52832C13.746 2.52832 13.9876 2.59279 14.2008 2.71531C14.414 2.83782 14.5913 3.01409 14.7151 3.22653L17.8595 8.62429L23.966 9.94728C24.2062 9.99948 24.4285 10.1137 24.6108 10.2786C24.7931 10.4435 24.929 10.6533 25.0049 10.8871C25.0808 11.1209 25.0941 11.3705 25.0435 11.6111C24.9929 11.8516 24.8801 12.0747 24.7164 12.258L20.5539 16.9167L21.1839 23.1323C21.2087 23.377 21.169 23.624 21.0685 23.8486C20.968 24.0732 20.8104 24.2674 20.6114 24.412C20.4124 24.5566 20.1789 24.6465 19.9343 24.6726C19.6897 24.6988 19.4425 24.6603 19.2174 24.561L13.5001 22.041L7.78289 24.561C7.5578 24.6603 7.3106 24.6988 7.06598 24.6726C6.82137 24.6465 6.58789 24.5566 6.38887 24.412C6.18984 24.2674 6.03223 24.0732 5.93178 23.8486C5.83132 23.624 5.79153 23.377 5.81639 23.1323L6.44639 16.9167L2.28389 12.2592C2.11989 12.0758 2.00686 11.8527 1.95608 11.612C1.90529 11.3713 1.91853 11.1215 1.99447 10.8875C2.07041 10.6535 2.2064 10.4436 2.38886 10.2786C2.57131 10.1136 2.79385 9.99937 3.03426 9.94728L9.14076 8.62429L12.2851 3.22653Z" fill="white"/>
</svg>
