<svg width="27" height="27" viewBox="0 0 27 27" fill="none" xmlns="http://www.w3.org/2000/svg">
<path fill-rule="evenodd" clip-rule="evenodd" d="M9 7.875C9 6.68153 9.47411 5.53693 10.318 4.69302C11.1619 3.84911 12.3065 3.375 13.5 3.375C14.6935 3.375 15.8381 3.84911 16.682 4.69302C17.5259 5.53693 18 6.68153 18 7.875C18 9.06847 17.5259 10.2131 16.682 11.057C15.8381 11.9009 14.6935 12.375 13.5 12.375C12.3065 12.375 11.1619 11.9009 10.318 11.057C9.47411 10.2131 9 9.06847 9 7.875ZM9 14.625C7.50816 14.625 6.07742 15.2176 5.02252 16.2725C3.96763 17.3274 3.375 18.7582 3.375 20.25C3.375 21.1451 3.73058 22.0036 4.36351 22.6365C4.99645 23.2694 5.85489 23.625 6.75 23.625H20.25C21.1451 23.625 22.0036 23.2694 22.6365 22.6365C23.2694 22.0036 23.625 21.1451 23.625 20.25C23.625 18.7582 23.0324 17.3274 21.9775 16.2725C20.9226 15.2176 19.4918 14.625 18 14.625H9Z" fill="white"/>
</svg>
