<svg width="27" height="27" viewBox="0 0 27 27" fill="none" xmlns="http://www.w3.org/2000/svg">
<path d="M5.48438 26.1562H3.79688C3.46121 26.1562 3.13929 26.0229 2.90194 25.7856C2.66459 25.5482 2.53125 25.2263 2.53125 24.8906V17.2969C2.53125 16.9612 2.66459 16.6393 2.90194 16.4019C3.13929 16.1646 3.46121 16.0312 3.79688 16.0312H5.48438C5.82004 16.0312 6.14196 16.1646 6.37931 16.4019C6.61666 16.6393 6.75 16.9612 6.75 17.2969V24.8906C6.75 25.2263 6.61666 25.5482 6.37931 25.7856C6.14196 26.0229 5.82004 26.1562 5.48438 26.1562ZM17.2969 26.1562H15.6094C15.2737 26.1562 14.9518 26.0229 14.7144 25.7856C14.4771 25.5482 14.3438 25.2263 14.3438 24.8906V12.2344C14.3438 11.8987 14.4771 11.5768 14.7144 11.3394C14.9518 11.1021 15.2737 10.9688 15.6094 10.9688H17.2969C17.6325 10.9688 17.9545 11.1021 18.1918 11.3394C18.4292 11.5768 18.5625 11.8987 18.5625 12.2344V24.8906C18.5625 25.2263 18.4292 25.5482 18.1918 25.7856C17.9545 26.0229 17.6325 26.1562 17.2969 26.1562ZM23.2031 26.1562H21.5156C21.18 26.1562 20.858 26.0229 20.6207 25.7856C20.3833 25.5482 20.25 25.2263 20.25 24.8906V6.32812C20.25 5.99246 20.3833 5.67054 20.6207 5.43319C20.858 5.19584 21.18 5.0625 21.5156 5.0625H23.2031C23.5388 5.0625 23.8607 5.19584 24.0981 5.43319C24.3354 5.67054 24.4688 5.99246 24.4688 6.32812V24.8906C24.4688 25.2263 24.3354 25.5482 24.0981 25.7856C23.8607 26.0229 23.5388 26.1562 23.2031 26.1562ZM11.3906 26.1562H9.70312C9.36746 26.1562 9.04554 26.0229 8.80819 25.7856C8.57084 25.5482 8.4375 25.2263 8.4375 24.8906V2.10938C8.4375 1.77371 8.57084 1.45179 8.80819 1.21444C9.04554 0.977092 9.36746 0.84375 9.70312 0.84375H11.3906C11.7263 0.84375 12.0482 0.977092 12.2856 1.21444C12.5229 1.45179 12.6562 1.77371 12.6562 2.10938V24.8906C12.6562 25.2263 12.5229 25.5482 12.2856 25.7856C12.0482 26.0229 11.7263 26.1562 11.3906 26.1562Z" fill="white"/>
</svg>
