<svg width="27" height="27" viewBox="0 0 27 27" fill="none" xmlns="http://www.w3.org/2000/svg">
<path d="M9.27378 8.25766L2.09628 9.29828L1.96916 9.32416C1.77671 9.37525 1.60128 9.47649 1.46076 9.61756C1.32025 9.75863 1.21969 9.93446 1.16935 10.1271C1.11902 10.3197 1.12071 10.5223 1.17426 10.7141C1.22781 10.9058 1.3313 11.08 1.47416 11.2187L6.67391 16.28L5.44766 23.4294L5.43303 23.5532C5.42125 23.7522 5.46258 23.9508 5.55279 24.1286C5.643 24.3064 5.77884 24.4571 5.94641 24.5651C6.11398 24.6732 6.30726 24.7347 6.50645 24.7435C6.70564 24.7523 6.90359 24.708 7.08003 24.6152L13.4993 21.2402L19.9039 24.6152L20.0164 24.6669C20.2021 24.7401 20.4039 24.7625 20.6011 24.7319C20.7984 24.7013 20.9839 24.6188 21.1387 24.4928C21.2935 24.3669 21.412 24.202 21.4821 24.0151C21.5522 23.8282 21.5713 23.6261 21.5374 23.4294L20.31 16.28L25.512 11.2175L25.5998 11.1219C25.7251 10.9675 25.8073 10.7827 25.838 10.5862C25.8686 10.3897 25.8466 10.1886 25.7743 10.0034C25.7019 9.81813 25.5817 9.65539 25.426 9.53174C25.2702 9.40808 25.0845 9.32791 24.8877 9.29941L17.7102 8.25766L14.5017 1.75516C14.4088 1.56676 14.2651 1.40811 14.0867 1.29717C13.9084 1.18624 13.7026 1.12744 13.4925 1.12744C13.2825 1.12744 13.0767 1.18624 12.8983 1.29717C12.72 1.40811 12.5762 1.56676 12.4834 1.75516L9.27378 8.25766Z" fill="#FAD749"/>
</svg>
